# xmcd
#
# Track frame offsets: 
#        150
#        10752
#        21877
#        35742
#        42532
#        56385
#        71152
#        84287
#        98755
#        110307
#        124107
#        138962
#
# Disc length: 2052 seconds
#
# Revision: 0
# Processed by: cddbd v1.5.2PL0 Copyright (c) Steve Scherf et al.
# Submitted via: ExactAudioCopy v0.99pb4
#
DISCID=9908020c
DTITLE=Williams, Paul and the Victory Trio - Just A Little Closer Home
DYEAR=2009
DGENRE=Bluegrass
TTITLE0=Living The Right Life Now
TTITLE1=What A Meeting In The Air
TTITLE2=Anywhere Is Home
TTITLE3=He Answered My Plea
TTITLE4=Only God's Son
TTITLE5=The Best Time Of My Life
TTITLE6=Someone Made The Sandals Jesus Wore
TTITLE7=Just A Little Closer Home
TTITLE8=I'm Longing For Home
TTITLE9=There's Still Time
TTITLE10=The Lord Still Lives In This Old House
TTITLE11=I've Been Set Free
EXTD=
EXTT0=
EXTT1=
EXTT2=
EXTT3=
EXTT4=
EXTT5=
EXTT6=
EXTT7=
EXTT8=
EXTT9=
EXTT10=
EXTT11=
PLAYORDER=
